<?xml version="1.0" encoding="UTF-8"?>
<svg width="56px" height="48px" viewBox="0 0 56 48" version="1.1" xmlns="http://www.w3.org/2000/svg" xmlns:xlink="http://www.w3.org/1999/xlink">
    <!-- Generator: Sketch 48.2 (47327) - http://www.bohemiancoding.com/sketch -->
    <title>Elements/Icon/AudioOff/Black/64px</title>
    <desc>Created with Sketch.</desc>
    <defs></defs>
    <g id="Iconography" stroke="none" stroke-width="1" fill="none" fill-rule="evenodd" transform="translate(-304.000000, -3485.000000)">
        <g id="block" transform="translate(120.000000, 233.000000)">
            <g id="Group">
                <g id="icons" transform="translate(84.000000, 3246.000000)">
                    <g id="Elements/Icon/AudioOff/Black/64px" transform="translate(96.000000, 0.000000)">
                        <g>
                            <rect id="Rectangle-path" transform="translate(32.000000, 32.000000) rotate(90.000000) translate(-32.000000, -32.000000) " x="-7.10542736e-15" y="0" width="64" height="64"></rect>
                            <path d="M59.707,22.707 L58.293,21.293 L51,28.586 L43.707,21.293 L42.293,22.707 L49.586,30 L42.293,37.293 L43.707,38.707 L51,31.414 L58.293,38.707 L59.707,37.293 L52.414,30 L59.707,22.707 Z M17.137,19 L4,19 L4,41 L17.137,41 L17.141,41.002 L38,53.535 L38,6.465 L17.141,18.998 L17.137,19 Z M36,10 L36,50 L17.692,39 L6,39 L6,21 L17.692,21 L36,10 Z" id="Shape" fill="#000000" fill-rule="nonzero"></path>
                        </g>
                    </g>
                </g>
            </g>
        </g>
    </g>
</svg>