<?xml version="1.0" encoding="UTF-8"?>
<svg width="56px" height="56px" viewBox="0 0 56 56" version="1.1" xmlns="http://www.w3.org/2000/svg" xmlns:xlink="http://www.w3.org/1999/xlink">
    <!-- Generator: Sketch 48.2 (47327) - http://www.bohemiancoding.com/sketch -->
    <title>Elements/Icon/NAPBag/White/64px</title>
    <desc>Created with Sketch.</desc>
    <defs></defs>
    <g id="Iconography" stroke="none" stroke-width="1" fill="none" fill-rule="evenodd" transform="translate(-688.000000, -4539.000000)">
        <g id="block" transform="translate(120.000000, 233.000000)">
            <g id="Group">
                <g id="64px-white" transform="translate(0.000000, 3934.000000)">
                    <g id="icons" transform="translate(84.000000, 80.000000)">
                        <g id="Elements/Icon/NAPBag/White/64px" transform="translate(480.000000, 288.000000)">
                            <g>
                                <rect id="Rectangle-path" transform="translate(32.000000, 32.000000) rotate(90.000000) translate(-32.000000, -32.000000) " x="-7.10542736e-15" y="0" width="64" height="64"></rect>
                                <path d="M43.251,18 L39.566,9.724 C39.446,9.47 39.313,9.22 39.165,8.974 C37.641,6.438 34.963,4.922 32.001,4.919 L32,4.919 C29.038,4.922 26.36,6.438 24.836,8.975 C24.689,9.221 24.555,9.471 24.427,9.744 L20.751,18 L4,18 L4,60 L60,60 L60,18 L43.251,18 Z M26.245,10.577 C26.336,10.383 26.438,10.192 26.551,10.004 C27.71,8.075 29.748,6.922 32.001,6.919 C34.255,6.922 36.293,8.075 37.452,10.005 C37.564,10.193 37.666,10.383 37.749,10.558 L41.062,18 L22.94,18 L26.245,10.577 Z M58,58 L6,58 L6,20 L19.86,20 L14.963,31 L17.152,31 L22.049,20 L41.953,20 L46.851,31 L49.04,31 L44.143,20 L58,20 L58,58 Z" id="Shape" fill="#FFFFFF" fill-rule="nonzero"></path>
                            </g>
                        </g>
                    </g>
                </g>
            </g>
        </g>
    </g>
</svg>