<?xml version="1.0" encoding="UTF-8"?>
<svg width="44px" height="56px" viewBox="0 0 44 56" version="1.1" xmlns="http://www.w3.org/2000/svg" xmlns:xlink="http://www.w3.org/1999/xlink">
    <!-- Generator: Sketch 48.2 (47327) - http://www.bohemiancoding.com/sketch -->
    <title>Elements/Icon/Discover/White/64px</title>
    <desc>Created with Sketch.</desc>
    <defs></defs>
    <g id="Iconography" stroke="none" stroke-width="1" fill="none" fill-rule="evenodd" transform="translate(-312.000000, -4348.000000)">
        <g id="block" transform="translate(120.000000, 233.000000)">
            <g id="Group">
                <g id="64px-white" transform="translate(0.000000, 3934.000000)">
                    <g id="icons" transform="translate(84.000000, 80.000000)">
                        <g id="Elements/Icon/Discover/White/64px" transform="translate(96.000000, 96.000000)">
                            <g>
                                <rect id="Rectangle-path" transform="translate(32.000000, 32.000000) rotate(90.000000) translate(-32.000000, -32.000000) " x="-7.10542736e-15" y="0" width="64" height="64"></rect>
                                <path d="M56,40.815 L48,36.229 L48,26 L46,26 L46,35.082 L30.429,26.155 C31.246,25.905 31.909,25.7 32.094,25.638 C33.362,25.215 34.331,24.575 34.333,24.573 C39.176,21.662 40.749,15.354 37.839,10.511 C34.929,5.668 28.621,4.095 23.777,7.005 C21.431,8.415 19.774,10.653 19.111,13.31 C18.449,15.966 18.861,18.721 20.277,21.078 C20.338,21.176 21.783,23.492 23.933,24.737 L25.426,25.593 C17.921,27.771 12.702,34.687 12.702,42.534 C12.702,52.265 20.62,60.183 30.351,60.183 C40.083,60.181 48,52.264 48,42.532 L48,38.533 L56,43.119 L56,40.815 Z M21.985,20.036 C19.642,16.138 20.908,11.061 24.806,8.718 C26.133,7.921 27.595,7.542 29.04,7.542 C31.842,7.542 34.578,8.968 36.124,11.54 C38.466,15.439 37.2,20.516 33.264,22.881 C33.256,22.886 32.465,23.405 31.46,23.74 C31.183,23.833 29.612,24.313 28.048,24.79 L24.93,23.002 C23.229,22.017 21.99,20.044 21.985,20.036 Z M46,42.532 C46,51.161 38.98,58.181 30.352,58.181 C21.723,58.181 14.703,51.161 14.703,42.532 C14.703,35.481 19.451,29.269 26.248,27.427 C26.248,27.427 26.981,27.205 27.806,26.955 L46,37.387 L46,42.532 Z" id="Shape" fill="#FFFFFF" fill-rule="nonzero"></path>
                            </g>
                        </g>
                    </g>
                </g>
            </g>
        </g>
    </g>
</svg>